<svg width="20" height="12" viewBox="0 0 20 12" fill="none" xmlns="http://www.w3.org/2000/svg">
<path d="M7.28578 5.57144C7.28578 7.04763 8.52388 8.28572 10.0001 8.28572C11.4763 8.28572 12.7144 7.04763 12.7144 5.57144C12.7144 4.09525 11.4763 2.85715 10.0001 2.85715C8.52388 2.85715 7.28578 4.09525 7.28578 5.57144ZM11.1429 11.4286C14.3334 10.7143 19.2858 6.4762 19.2858 6.4762C19.2858 6.4762 15.6191 0.761912 10.7144 0.142864C10.4286 0.0952451 9.47626 0.0952454 9.28578 0.0952454C4.52388 0.571436 0.714355 6.61905 0.714355 6.61905C0.714355 6.61905 4.85721 10.7143 8.80959 11.3333C9.23816 11.5238 10.6667 11.5238 11.1429 11.4286ZM5.28578 5.85715C5.28578 3.38096 7.38102 1.38096 10.0001 1.38096C12.6191 1.38096 14.7144 3.38096 14.7144 5.85715C14.7144 8.33334 12.6191 10.2857 10.0001 10.2857C7.38102 10.2857 5.28578 8.28572 5.28578 5.85715Z" fill="#953FEA"/>
</svg>
