<svg width="33" height="30" viewBox="0 0 33 30" fill="none" xmlns="http://www.w3.org/2000/svg">
<path d="M26.396 7.83537C26.0489 5.77308 25.0278 3.89099 23.4661 2.46274C21.7308 0.874305 19.475 0 17.1257 0C15.3103 0 13.5417 0.520579 12.0267 1.50167C10.7653 2.31591 9.71746 3.41713 8.97664 4.7119C8.65628 4.65184 8.32258 4.61847 7.98888 4.61847C5.15239 4.61847 2.84316 6.9277 2.84316 9.76418C2.84316 10.1313 2.8832 10.485 2.94994 10.832C1.11457 12.1669 0 14.3159 0 16.6051C0 18.4538 0.687431 20.2492 1.94216 21.6707C3.23026 23.1257 4.93215 23.9867 6.7475 24.0868C6.76752 24.0868 6.78087 24.0868 6.80089 24.0868H12.5406C13.0412 24.0868 13.4416 23.6863 13.4416 23.1858C13.4416 22.6852 13.0412 22.2848 12.5406 22.2848H6.82759C4.09789 22.1179 1.802 19.5217 1.802 16.5984C1.802 14.7097 2.81646 12.9477 4.45161 11.9933C4.83204 11.7731 4.99221 11.3126 4.84538 10.8988C4.7119 10.5384 4.64516 10.158 4.64516 9.75084C4.64516 7.90879 6.14683 6.40712 7.98888 6.40712C8.38265 6.40712 8.76974 6.47386 9.13014 6.60734C9.57063 6.76752 10.0578 6.5673 10.2581 6.14683C11.5061 3.49722 14.2024 1.78865 17.1324 1.78865C21.0701 1.78865 24.3204 4.7386 24.6941 8.64961C24.7341 9.05673 25.0412 9.38376 25.4416 9.4505C28.4116 9.95773 30.6541 12.7008 30.6541 15.8309C30.6541 19.1479 28.0445 22.0312 24.8276 22.2781H19.9088C19.4082 22.2781 19.0078 22.6785 19.0078 23.1791C19.0078 23.6796 19.4082 24.0801 19.9088 24.0801H24.861C24.881 24.0801 24.901 24.0801 24.9277 24.0801C26.9633 23.9333 28.8654 22.9989 30.2803 21.4372C31.6885 19.8888 32.4561 17.8999 32.4561 15.8309C32.4494 12.0868 29.8932 8.7564 26.396 7.83537Z" fill="#9B392C"/>
<path d="M21.6374 17.4594C21.9911 17.1057 21.9911 16.5384 21.6374 16.1847L16.8654 11.4127C16.6985 11.2459 16.465 11.1458 16.2314 11.1458C15.9978 11.1458 15.7642 11.2392 15.5973 11.4127L10.8254 16.1847C10.4716 16.5384 10.4716 17.1057 10.8254 17.4594C10.9989 17.633 11.2325 17.7264 11.4594 17.7264C11.6863 17.7264 11.9199 17.6396 12.0934 17.4594L15.3304 14.2225V29.099C15.3304 29.5996 15.7308 30 16.2314 30C16.7319 30 17.1324 29.5996 17.1324 29.099V14.2225L20.3693 17.4594C20.7163 17.8132 21.2836 17.8132 21.6374 17.4594Z" fill="#000"/>
</svg>
